# xmcd CD database file
#
# Track frame offsets:
#	150
#	4655
#	8360
#	12155
#	16697
#	19435
#	22812
#	27375
#	30135
#	34215
#	37150
#
# Disc length: 561 seconds
#
# Revision: 0
# Processed by: cddbd v1.5.1PL0 Copyright (c) Steve Scherf et al.
# Submitted via: CDex 1.51
#
DISCID=67022f0b
DTITLE=UNIQLO - ユニクロCM楽曲集 2004
DYEAR=2004
DGENRE=Blues
TTITLE0=春の美脚 [バレリーナ] 篇
TTITLE1=04モデル[ヨガ]篇
TTITLE2=SHOW YOUR COLORS.
TTITLE3=POETRY READING
TTITLE4=`04 PANTS COLLECTION
TTITLE5=`04 CASHMERE [BABY] 篇
TTITLE6=`04 CASHMERE [Portrait] 篇
TTITLE7=OUTLAST FLEECE-DEBUT
TTITLE8=OUTLAST FLEECE-WALKING
TTITLE9=ICE SKATER
TTITLE10=`04 GIFT
EXTD=YEAR: 2004
EXTT0=
EXTT1=
EXTT2=
EXTT3=
EXTT4=
EXTT5=
EXTT6=
EXTT7=
EXTT8=
EXTT9=
EXTT10=
PLAYORDER=
